<svg xmlns="http://www.w3.org/2000/svg" viewBox="29 0 71 71">
  <!-- Based on Wink by Olesya Kozlova, Public Domain.
       https://thenounproject.com/search/?q=face&i=123553 -->
  <circle fill="#FFF" cx="64.5" cy="35.5" r="35.5"/>
  <path fill="#3B5999" d="M80.8 19.8c-5.1 0-9.5 3.5-10.8 8.2-1.6-.7-3.4-1.1-5.2-1.1-2 0-4 .5-5.8 1.4-1.2-4.9-5.6-8.5-10.9-8.5-6.2 0-11.3 5-11.3 11.3 0 6.2 5 11.3 11.3 11.3 6.2 0 11.2-5 11.2-11.2 1.6-1 3.5-1.6 5.4-1.6 1.7 0 3.3.4 4.7 1.2v.3c0 6.2 5 11.3 11.3 11.3S92 37.4 92 31.1c.1-6.3-5-11.3-11.2-11.3zM48.2 39.6c-4.8 0-8.6-3.9-8.6-8.6 0-4.8 3.9-8.6 8.6-8.6s8.6 3.9 8.6 8.6c0 4.8-3.9 8.6-8.6 8.6zm32.6 0c-4.8 0-8.6-3.9-8.6-8.6 0-4.8 3.9-8.6 8.6-8.6 4.8 0 8.6 3.9 8.6 8.6.1 4.8-3.8 8.6-8.6 8.6zm5.7 7.1c-.7 0-1.3.6-1.3 1.3v.1c-.1 1-.5 2.2-2.2 2.2-.7 0-2-1.7-3-2.9-1.9-2.3-4-4.9-6.9-4.9-3.6 0-7.2 1.4-8.5 2-1.4-.6-4.9-2-8.5-2-3 0-5.1 2.6-6.9 4.9-1 1.2-2.3 2.9-3 2.9-1.7 0-2.2-1.2-2.2-2.2V48c0-.7-.6-1.3-1.3-1.3-.7 0-1.3.6-1.3 1.3v.2c.1 1.5.7 8.8 5.8 10.3 1.8.5 3.5.8 5.2.8 4.4 0 8.3-1.7 10.7-4.7.7-.8 1.2-1.5 1.6-2.2.4.6.9 1.4 1.6 2.2 2.5 3 6.4 4.7 10.7 4.7 1.7 0 3.5-.3 5.2-.8 5-1.5 5.7-8.8 5.8-10.3V48c-.2-.7-.8-1.2-1.5-1.3zM47.6 18.2c.7 0 1.3-.6 1.3-1.4 0-.7-.6-1.3-1.4-1.3-5.4.2-10.3 3.3-12.9 8-.4.6-.1 1.4.5 1.8.2.1.4.2.6.2.5 0 .9-.2 1.2-.7 2.1-3.9 6.2-6.4 10.7-6.6zm46.7 5.2c-2.6-4.6-7.4-7.5-12.7-7.8-.7 0-1.3.5-1.4 1.2 0 .7.5 1.3 1.2 1.4 4.4.2 8.3 2.7 10.5 6.5.2.4.7.7 1.1.7.2 0 .4-.1.6-.2.9-.4 1.1-1.2.7-1.8zm-43.5-5.6l.6.3c.2.1.4.1.6.1.5 0 .9-.3 1.2-.7.3-.6.1-1.4-.6-1.8l-.6-.3c-.6-.3-1.4-.1-1.8.6-.3.7 0 1.5.6 1.8zm26.2.5c.2 0 .4 0 .6-.1l.6-.3c.6-.3.9-1.1.6-1.8-.3-.6-1.1-.9-1.8-.6l-.6.3c-.6.3-.9 1.1-.6 1.8.3.4.7.7 1.2.7zM65.9 56.7h-2.8c-.7 0-1.3.6-1.3 1.3s.6 1.3 1.3 1.3h2.8c.7 0 1.3-.6 1.3-1.3s-.6-1.3-1.3-1.3zm17.8-26.3H78c-.7 0-1.3.6-1.3 1.3 0 .7.6 1.3 1.3 1.3h5.7c.7 0 1.3-.6 1.3-1.3 0-.7-.6-1.3-1.3-1.3zm-35.5-3.6c-2.4 0-4.3 1.9-4.3 4.3s1.9 4.3 4.3 4.3 4.3-1.9 4.3-4.3c-.1-2.4-2-4.3-4.3-4.3z"/>
</svg>
